<?xml version="1.0" encoding="UTF-8"?>
<svg width="24px" height="20px" viewBox="0 0 24 20" version="1.1" xmlns="http://www.w3.org/2000/svg" xmlns:xlink="http://www.w3.org/1999/xlink">
    <!-- Generator: Sketch 42 (36781) - http://www.bohemiancoding.com/sketch -->
    <title>Page 1</title>
    <desc>Created with Sketch.</desc>
    <defs>
        <polygon id="path-1" points="23.1902468 19.9580401 0 19.9580401 0 0.023280088 23.1902468 0.023280088"></polygon>
    </defs>
    <g id="Page-1" stroke="none" stroke-width="1" fill="none" fill-rule="evenodd">
        <g id="last-mile-delivery-list" transform="translate(-268.000000, -156.000000)">
            <g id="Page-1" transform="translate(268.000000, 156.000000)">
                <g id="Group-3" transform="translate(0.000000, 0.019658)">
                    <mask id="mask-2" fill="white">
                        <use xlink:href="#path-1"></use>
                    </mask>
                    <g id="Clip-2"></g>
                </g>
                <path d="M21.4063414,17.7478223 C21.4063414,17.993714 21.2063318,18.1938094 20.9603543,18.1938094 L2.22979808,18.1938094 C1.98386352,18.1938094 1.78381099,17.9937569 1.78381099,17.7478223 L1.78381099,6.37564526 C1.78381099,6.1297107 1.9838206,5.92961526 2.22979808,5.92961526 L20.9603543,5.92961526 C21.2062889,5.92961526 21.4063414,6.12966778 21.4063414,6.37564526 L21.4063414,17.7478223 Z M1.82424212,4.05664977 L6.68945432,4.05664977 L6.68945432,1.82680018 L1.82424212,1.82680018 L1.82424212,4.05664977 Z M20.9603972,4.1458386 L8.47331682,4.1458386 L8.47331682,0.0429376845 L0.0403796217,0.0429376845 L0.0403796217,5.84051226 L0.0653593622,5.84051226 C0.0229109716,6.01202265 -8.58410328e-06,6.19117288 -8.58410328e-06,6.37568818 L-8.58410328e-06,17.7478653 C-8.58410328e-06,18.9773234 1.00059741,19.9777148 2.229841,19.9777148 L20.9603972,19.9777148 C22.1895979,19.9777148 23.1902468,18.9773234 23.1902468,17.7478653 L23.1902468,6.37564526 C23.1902468,5.14610123 22.1895979,4.1458386 20.9603972,4.1458386 L20.9603972,4.1458386 Z" id="Fill-1" fill="#58595B"></path>
                <path d="M11.7734968,14.0699461 C10.6913418,14.0699461 9.81125662,13.1894747 9.81125662,12.107706 C9.81125662,11.025551 10.6913418,10.1454658 11.7734968,10.1454658 C12.8556518,10.1454658 13.7357369,11.025551 13.7357369,12.107706 C13.7357369,13.1894747 12.8556947,14.0699461 11.7734968,14.0699461 M11.7734968,8.3616033 C9.70811861,8.3616033 8.02739412,10.0419844 8.02739412,12.107706 C8.02739412,14.1734275 9.70811861,15.8538515 11.7734968,15.8538515 C13.8388749,15.8538515 15.5195565,14.1734275 15.5195565,12.107706 C15.5195565,10.0419844 13.8388749,8.3616033 11.7734968,8.3616033" id="Fill-4" fill="#58595B"></path>
            </g>
        </g>
    </g>
</svg>